<svg xmlns="http://www.w3.org/2000/svg" width="839.31" height="608.563" viewBox="0 0 839.31 608.563">
  <path id="Subtraction_1" data-name="Subtraction 1" d="M-9303.735-3346.469h-116.45v-286.7l-106.918,286.7h-93.979l-107.6-287.38v287.38h-61.844a16.752,16.752,0,0,0,2.421-9.056l-3.736-200.387a17.545,17.545,0,0,0-3.431-10.09,18.265,18.265,0,0,0-8.379-6.337l-.369-19.907a16.687,16.687,0,0,0,15.5-17.11,18.4,18.4,0,0,0-17.908-17.906l-29.772-.563-2.207-118.051h.079l3.042.056,7.671-31.073-9.035-47.638h129.085l134.158,330.966,135.066-460.466,134.651.1-.043,607.463Zm-597.429-1.085h-98.776l2.647-499.486H-10142v-106.585l687.439-.374-29.945,106.959h-379.747l.02,21.418-6.139-.114-3.044-.053-7.358,47.91,8.845,31.376,3.036.063.079-.005,2.194,118.056-29.775-.552c-.117,0-.232,0-.343,0a16.806,16.806,0,0,0-12.1,5.025,16.859,16.859,0,0,0-4.811,12.231,18.3,18.3,0,0,0,16.147,17.695l.374,19.915a16.439,16.439,0,0,0-8.148,6.028,16.468,16.468,0,0,0-3.059,9.97l3.734,200.387a17.7,17.7,0,0,0,3.436,10.139Z" transform="translate(10142.502 3954.532)" fill="#6366f1" stroke="rgba(0,0,0,0)" stroke-miterlimit="10" stroke-width="1"/>
</svg>
